<svg xmlns="http://www.w3.org/2000/svg" viewBox="0 0 780 130" width="780" height="130">
  <!-- ============================================================
       VIVA : tracés vectoriels EXACTS repris du logo VIVAWEB officiel
       (VIVAWEB_white.svg — 4 premiers paths, zone x≈3.5 → 475)
       ============================================================ -->
  <g fill="#ffffff">
    <path d="M3.5,8.3C2.3,5.8,4.1,4,6.5,4h23.2c1.2,0,2.4,1.2,3.1,1.8l28.7,64.1h1.2L91.3,5.8C92,5.2,93.2,4,94.4,4h23.2
      c2.4,0,4.3,2.4,3.1,4.3L65.7,126.6c-0.6,1.2-1.8,1.8-3.1,1.8h-1.8c-1.2,0-2.4-0.6-3.1-1.8L3.5,8.3z"/>
    <path d="M160.3,7c0-1.8,1.8-3.1,3.1-3.1h21.4c1.8,0,3.1,1.8,3.1,3.1V123c0,1.8-1.8,3.1-3.1,3.1h-21.4
      c-1.8,0-3.1-1.8-3.1-3.1V7z"/>
    <path d="M226.8,8.3c-1.2-2.4,0.6-4.3,3.1-4.3H253c1.2,0,2.4,1.2,3.1,1.8l28.7,64.1h1.2l28.7-64.1c0.6-0.6,1.8-1.8,3.1-1.8
      h23.2c2.4,0,4.3,2.4,3.1,4.3L289,126.6c-0.6,1.2-1.8,1.8-3.1,1.8h-1.8c-1.2,0-2.4-0.6-3.1-1.8L226.8,8.3z"/>
    <path d="M358,121.7L412.9,3.4c0.6-1.2,1.8-1.8,3.1-1.8h1.8c1.2,0,2.4,0.6,3.1,1.8l54.9,118.4c1.2,2.4-0.6,4.3-3.1,4.3
      h-19.5c-3.1,0-4.3-1.2-6.1-4.3l-6.1-14h-47.6l-6.1,14c-0.6,1.8-3.1,4.3-6.1,4.3h-19.5C358.6,126,357.4,124.2,358,121.7z
      M430.6,83.9l-13.4-28.7l-13.4,28.7H430.6z"/>
  </g>

  <!-- ============================================================
       PI : filaire fin (monoline), même esprit que WEB3
       ============================================================ -->
  <g fill="none" stroke="#ffffff" stroke-width="6" stroke-linejoin="round" stroke-linecap="round">
    <!-- P -->
    <path d="M496,126 V6 h34 a28,28 0 0 1 0,56 h-34"/>
    <!-- I -->
    <path d="M578,6 V126"/>
  </g>

  <!-- "VALIDATOR" en filaire fin, aligné sur le bas des lettres VIVA -->
  <text x="612" y="126" font-family="'Segoe UI', Arial, sans-serif" font-size="26"
        font-weight="400" letter-spacing="4"
        fill="#ffffff">VALIDATOR</text>
</svg>
